{"glyphs":{"0":{"ha":714,"x_min":0,"x_max":0,"o":"m 657 444 b 604 761 657 538 653 657 b 357 925 543 892 438 925 b 107 758 274 925 168 892 b 56 444 63 663 56 550 b 118 110 56 354 58 219 b 356 -31 183 -8 292 -31 b 607 136 446 -31 549 8 b 657 444 649 229 657 333 z m 538 461 b 524 176 538 375 538 258 b 357 4 494 18 392 4 b 189 181 315 4 215 24 b 175 461 175 263 175 382 b 192 742 175 556 175 665 b 356 890 219 865 308 890 b 522 733 408 890 496 863 b 538 461 538 657 538 549 z "},"1":{"ha":714,"x_min":0,"x_max":0,"o":"m 600 0 l 600 43 l 556 43 b 422 111 426 43 422 60 l 422 888 b 386 925 422 922 421 925 b 129 836 300 836 172 836 l 129 793 b 315 829 156 793 240 793 l 315 111 b 182 43 315 60 311 43 l 138 43 l 138 0 b 368 4 188 4 311 4 b 600 0 425 4 550 4 z "},"2":{"ha":714,"x_min":0,"x_max":0,"o":"m 642 246 l 603 246 b 571 124 600 228 589 146 b 439 111 563 111 467 111 l 192 111 l 329 242 b 642 654 557 439 642 513 b 339 925 642 814 510 925 b 71 672 179 925 71 799 b 143 596 71 603 131 596 b 215 668 174 596 215 618 b 143 740 215 710 186 740 b 126 739 136 740 132 740 b 324 882 160 838 249 882 b 514 654 465 882 514 750 b 340 325 514 513 407 397 l 86 50 b 71 0 71 35 71 32 l 603 0 z "},"3":{"ha":714,"x_min":0,"x_max":0,"o":"m 653 236 b 424 489 653 357 557 460 b 614 735 553 538 614 639 b 351 925 614 842 496 925 b 99 738 207 925 99 843 b 169 665 99 692 129 665 b 239 735 210 665 239 694 b 158 804 239 783 206 804 b 347 890 194 863 279 890 b 485 733 463 890 485 799 b 442 572 485 692 476 625 b 310 504 399 510 350 507 b 261 501 275 501 272 501 b 238 483 249 500 238 499 b 272 465 238 465 249 465 l 338 465 b 511 236 458 465 511 368 b 346 8 511 58 417 8 b 122 118 319 8 185 15 b 211 193 172 111 211 146 b 136 268 211 239 176 268 b 60 189 101 268 60 247 b 350 -31 60 65 189 -31 b 653 236 524 -31 653 94 z "},"4":{"ha":714,"x_min":0,"x_max":0,"o":"m 672 229 l 672 272 l 531 272 l 531 903 b 504 940 531 931 531 940 b 474 919 488 940 486 939 l 40 272 l 40 229 l 419 229 l 419 110 b 311 43 419 58 415 43 l 281 43 l 281 0 b 475 4 368 4 465 4 b 669 0 482 4 582 4 l 669 43 l 639 43 b 531 110 535 43 531 58 l 531 229 z m 428 272 l 85 272 l 428 786 z "},"5":{"ha":714,"x_min":0,"x_max":0,"o":"m 642 278 b 371 583 642 446 522 583 b 188 511 304 583 236 561 l 188 785 b 315 765 229 772 272 765 b 586 907 486 765 586 889 b 571 925 586 919 578 925 b 553 918 571 925 565 925 b 365 881 488 892 424 881 b 179 918 306 881 243 892 b 161 925 165 925 161 925 b 144 888 144 925 144 911 l 144 479 b 164 439 144 454 144 439 b 188 457 175 439 179 444 b 368 549 229 515 296 549 b 517 285 517 549 517 335 b 478 93 517 242 517 156 b 328 8 440 35 382 8 b 119 163 246 8 153 60 b 139 160 119 163 129 160 b 207 228 167 160 207 178 b 139 296 207 271 176 296 b 71 224 110 296 71 279 b 331 -31 71 97 176 -31 b 642 278 499 -31 642 106 z "},"6":{"ha":714,"x_min":0,"x_max":0,"o":"m 653 282 b 368 592 653 458 525 592 b 186 460 285 592 225 543 b 239 753 186 601 201 681 b 438 890 267 810 335 890 b 561 835 465 890 529 885 b 488 771 510 835 488 808 b 551 707 488 735 513 707 b 617 774 590 707 617 732 b 435 925 617 851 561 925 b 60 439 256 925 60 749 b 360 -31 60 63 229 -31 b 653 282 514 -31 653 99 z m 526 283 b 500 97 526 217 526 149 b 358 8 457 18 396 8 b 217 114 279 8 233 74 b 189 314 190 176 189 292 b 365 557 189 407 232 557 b 500 471 388 557 456 557 b 526 283 526 418 526 350 z "},"7":{"ha":714,"x_min":0,"x_max":0,"o":"m 693 894 l 347 894 b 164 939 172 894 168 913 l 125 939 l 79 649 l 118 649 b 153 775 124 681 135 758 b 292 783 163 783 272 783 l 583 783 l 450 601 b 253 47 269 353 253 126 b 317 -31 253 32 253 -31 b 382 49 382 -31 382 31 l 382 117 b 486 582 382 321 413 482 l 681 847 b 693 894 693 863 693 865 z "},"8":{"ha":714,"x_min":0,"x_max":0,"o":"m 653 233 b 515 457 653 368 550 435 b 443 503 500 468 460 493 b 614 718 513 536 614 606 b 358 925 614 849 483 925 b 99 693 213 925 99 821 b 151 550 99 640 118 590 b 264 467 175 524 183 518 b 60 210 142 408 60 324 b 356 -31 60 63 206 -31 b 653 233 517 -31 653 83 z m 547 718 b 408 525 547 621 464 557 l 239 631 b 165 746 197 657 165 694 b 354 890 165 836 263 890 b 547 718 461 890 547 815 z m 578 185 b 357 8 578 75 467 8 b 135 210 236 8 135 94 b 301 443 135 310 204 393 l 476 335 b 578 185 508 314 578 269 z "},"9":{"ha":714,"x_min":0,"x_max":0,"o":"m 653 457 b 361 925 653 833 486 925 b 60 614 201 925 60 796 b 344 304 60 438 188 304 b 526 438 446 304 501 378 l 526 407 b 293 8 526 68 372 8 b 154 60 261 8 190 14 l 160 60 b 225 124 171 57 225 68 b 161 188 225 160 200 188 b 96 121 122 188 96 163 b 294 -31 96 29 169 -31 b 653 457 474 -31 653 153 z m 524 585 b 347 339 524 483 478 339 b 213 425 325 339 257 339 b 186 613 186 478 186 546 b 215 801 186 679 186 749 b 361 890 257 872 311 890 b 499 781 456 890 493 794 b 524 585 518 729 524 644 z "},"|":{"ha":397,"x_min":0,"x_max":0,"o":"m 228 -299 l 228 993 b 199 1042 228 1013 228 1042 b 168 993 168 1042 168 1015 l 168 -299 b 199 -347 168 -321 168 -347 b 228 -299 228 -347 228 -318 z "},"e":{"ha":635,"x_min":0,"x_max":0,"o":"m 593 165 b 574 183 593 175 586 183 b 554 168 560 183 556 174 b 363 24 507 26 383 24 b 207 108 296 24 239 61 b 160 318 161 176 160 260 l 556 318 b 593 347 586 318 593 318 b 338 622 593 490 515 622 b 40 306 171 622 40 478 b 356 -15 40 124 186 -15 b 593 165 525 -15 593 133 z m 499 351 l 161 351 b 338 588 174 565 299 588 b 499 351 414 588 497 529 z "},"-":{"ha":476,"x_min":0,"x_max":0,"o":"m 396 257 l 396 343 l 15 343 l 15 257 z "},"I":{"ha":515,"x_min":0,"x_max":0,"o":"m 468 0 l 468 43 l 433 43 b 319 110 322 43 319 60 l 319 839 b 433 906 319 889 322 906 l 468 906 l 468 949 b 257 944 411 944 317 944 b 46 949 197 944 103 944 l 46 906 l 81 906 b 194 839 192 906 194 889 l 194 110 b 81 43 194 60 192 43 l 46 43 l 46 0 b 257 4 103 4 197 4 b 468 0 317 4 411 4 z "},"i":{"ha":397,"x_min":0,"x_max":0,"o":"m 351 0 l 351 43 b 256 104 261 43 256 50 l 256 614 l 56 599 l 56 556 b 157 479 144 556 157 547 l 157 107 b 50 43 157 43 142 43 l 50 0 b 203 4 113 3 142 4 b 351 0 225 4 283 4 z m 274 838 b 199 913 274 879 240 913 b 124 838 157 913 124 879 b 199 763 124 796 157 763 b 274 838 240 763 274 796 z "},"m":{"ha":1189,"x_min":0,"x_max":0,"o":"m 1157 0 l 1157 43 b 1050 86 1086 43 1051 43 l 1050 353 b 1004 564 1050 474 1050 513 b 856 614 975 597 919 614 b 649 482 756 614 688 556 b 460 614 632 564 576 614 b 251 478 349 614 281 542 l 250 478 l 250 614 l 49 599 l 49 556 b 156 478 143 556 156 546 l 156 107 b 49 43 156 43 140 43 l 49 0 b 207 4 114 3 140 4 b 365 0 274 4 292 3 l 365 43 b 258 107 274 43 258 43 l 258 360 b 450 579 258 510 367 579 b 551 428 526 579 551 525 l 551 107 b 444 43 551 43 536 43 l 444 0 b 603 4 510 3 536 4 b 761 0 669 4 688 3 l 761 43 b 654 107 669 43 654 43 l 654 360 b 846 579 654 510 763 579 b 947 428 922 579 947 525 l 947 107 b 840 43 947 43 932 43 l 840 0 b 999 4 906 3 932 4 b 1157 0 1065 4 1083 3 z "},"(":{"ha":556,"x_min":0,"x_max":0,"o":"m 474 -331 b 461 -310 474 -324 469 -319 b 228 347 282 -146 228 104 b 465 1010 228 563 269 824 b 474 1026 471 1015 474 1019 b 457 1042 474 1036 467 1042 b 240 790 440 1042 315 942 b 140 349 174 657 140 514 b 229 -74 140 249 153 90 b 457 -346 311 -244 440 -346 b 474 -331 467 -346 474 -340 z "},")":{"ha":556,"x_min":0,"x_max":0,"o":"m 414 349 b 325 769 414 463 397 615 b 97 1042 243 940 114 1042 b 81 1026 83 1042 81 1031 b 93 1006 81 1019 83 1015 b 326 349 174 933 326 744 b 89 -314 326 150 290 -126 b 81 -331 86 -318 81 -324 b 97 -346 81 -335 83 -346 b 314 -94 114 -346 239 -246 b 414 349 381 39 414 182 z "},"+":{"ha":1110,"x_min":0,"x_max":0,"o":"m 1029 347 b 981 378 1029 378 1003 378 l 585 378 l 585 775 b 554 824 585 797 585 824 b 525 775 525 824 525 794 l 525 378 l 128 378 b 79 349 108 378 79 378 b 128 318 79 318 106 318 l 525 318 l 525 -79 b 556 -128 525 -101 525 -128 b 585 -79 585 -128 585 -99 l 585 318 l 981 318 b 1029 347 1000 318 1029 318 z "},"R":{"ha":1050,"x_min":0,"x_max":0,"o":"m 1044 124 b 1025 149 1044 132 1044 149 b 1006 125 1007 149 1007 136 b 913 4 999 38 956 4 b 842 56 868 4 853 32 b 808 243 829 86 817 181 b 631 471 797 329 785 422 b 871 699 763 508 871 590 b 499 949 871 836 703 949 l 56 949 l 56 906 l 88 906 b 197 839 194 906 197 890 l 197 110 b 88 43 197 58 194 43 l 56 43 l 56 0 b 257 4 121 4 190 4 b 460 0 324 4 393 4 l 460 43 l 428 43 b 318 110 321 43 318 58 l 318 457 l 485 457 b 635 399 585 457 629 404 b 676 228 676 347 676 326 b 743 21 676 135 676 74 b 907 -31 808 -31 892 -31 b 1044 124 1024 -31 1044 90 z m 729 699 b 479 492 729 579 668 492 l 318 492 l 318 849 b 347 903 318 885 321 897 b 433 906 360 906 404 906 b 729 699 553 906 729 906 z "}," ":{"ha":476,"x_min":0,"x_max":0,"o":""},"w":{"ha":1031,"x_min":0,"x_max":0,"o":"m 1001 556 l 1001 599 b 897 594 946 594 943 594 b 769 599 844 594 825 594 l 769 556 b 849 489 829 554 849 517 b 842 457 849 475 846 467 l 714 110 l 574 490 b 567 517 567 508 567 513 b 646 556 567 553 610 556 l 646 599 b 503 594 582 594 525 594 b 375 599 460 594 419 594 l 375 556 b 463 535 419 556 447 554 b 493 460 475 519 493 464 l 486 440 l 372 128 l 240 489 b 232 518 232 510 232 513 b 313 556 232 556 286 556 l 313 599 l 161 594 b 28 599 115 594 75 594 l 28 556 b 129 506 94 556 113 553 l 308 15 b 340 -15 315 -1 319 -15 b 372 14 361 -15 367 0 l 514 403 l 657 14 b 689 -15 663 0 668 -15 b 719 13 710 -15 714 -1 l 885 464 b 1001 556 915 549 972 554 z "},"z":{"ha":635,"x_min":0,"x_max":0,"o":"m 574 264 l 535 264 b 329 39 521 110 503 39 l 167 39 l 557 554 b 569 578 569 569 569 572 b 532 599 569 599 556 599 l 75 599 l 60 371 l 99 371 b 289 564 107 513 132 564 l 444 564 l 53 47 b 40 22 40 32 40 29 b 78 0 40 0 53 0 l 550 0 z "},"∞":{"ha":1428,"x_min":0,"x_max":0,"o":"m 643 267 b 331 42 569 146 468 42 b 128 300 207 42 128 165 b 326 535 128 424 210 535 b 576 353 431 535 507 439 z m 1300 300 b 1101 64 1300 175 1218 64 b 851 246 997 64 921 160 l 785 332 b 1097 557 858 453 960 557 b 1300 300 1221 557 1300 433 z m 1364 300 b 1072 631 1364 475 1240 631 b 725 406 925 631 810 531 l 693 446 b 360 635 610 551 494 635 b 64 300 189 635 64 478 b 356 -32 64 124 188 -32 b 703 193 503 -32 618 68 l 735 153 b 1068 -36 818 47 933 -36 b 1364 300 1239 -36 1364 121 z "},"Ω":{"ha":1031,"x_min":0,"x_max":0,"o":"m 965 226 l 926 226 b 901 125 918 189 908 144 b 808 92 893 103 889 92 l 697 92 b 811 310 715 161 746 214 b 950 631 883 414 950 511 b 515 979 950 822 758 979 b 79 631 267 979 79 819 b 215 313 79 510 149 410 b 332 92 288 207 315 157 l 221 92 b 129 121 140 92 136 103 b 103 226 121 142 110 190 l 64 226 l 111 0 l 339 0 b 376 29 369 0 376 0 b 290 349 376 128 332 243 b 221 632 254 442 221 535 b 514 944 221 843 374 944 b 808 632 661 944 808 838 b 738 349 808 529 771 433 b 653 29 697 242 653 128 b 690 0 653 0 660 0 l 918 0 z "},"¹":{"ha":525,"x_min":0,"x_max":0,"o":"m 432 425 l 432 450 l 400 450 b 304 492 307 450 304 461 l 304 957 b 278 979 304 978 303 979 b 93 926 217 926 124 926 l 93 900 b 226 922 113 900 174 900 l 226 492 b 131 450 226 461 224 450 l 99 450 l 99 425 b 265 428 135 428 224 428 b 432 425 306 428 396 428 z "},"√":{"ha":674,"x_min":0,"x_max":0,"o":"m 746 993 b 700 1026 746 1018 724 1026 b 674 1025 690 1026 682 1025 l 568 1025 b 517 960 524 1025 526 990 l 388 479 l 274 57 l 193 440 b 149 372 179 417 164 394 l 69 251 b 33 193 57 233 33 201 l 33 190 b 56 167 36 181 49 172 l 140 294 b 161 186 144 258 154 222 l 224 -115 b 242 -143 226 -128 224 -143 l 254 -143 b 299 -82 290 -143 292 -107 l 571 931 b 599 967 578 949 575 967 b 618 965 606 967 613 965 l 701 965 b 746 993 721 965 743 968 z "},"³":{"ha":513,"x_min":0,"x_max":0,"o":"m 469 567 b 306 718 469 639 401 700 b 442 865 399 747 442 808 b 253 979 442 929 357 979 b 71 867 149 979 71 931 b 122 824 71 840 93 824 b 172 865 151 824 172 842 b 114 907 172 894 149 907 b 250 958 140 942 201 958 b 349 865 333 958 349 904 b 318 768 349 840 343 800 b 224 728 288 731 251 729 b 188 725 199 725 196 725 b 171 715 179 725 171 724 b 196 704 171 704 179 704 l 243 704 b 368 567 331 704 368 646 b 249 429 368 460 300 429 b 88 496 231 429 133 433 b 151 540 124 492 151 513 b 99 586 151 568 126 586 b 43 538 74 586 43 574 b 251 407 43 464 136 407 b 469 567 376 407 469 482 z "},"²":{"ha":513,"x_min":0,"x_max":0,"o":"m 463 572 l 433 572 b 411 499 432 561 424 513 b 317 492 406 492 336 492 l 138 492 l 238 569 b 463 817 401 688 463 732 b 244 979 463 913 367 979 b 51 828 129 979 51 904 b 103 782 51 786 94 782 b 156 825 125 782 156 796 b 103 869 156 850 133 869 b 92 868 99 869 94 869 b 233 954 115 928 179 954 b 369 817 335 954 369 875 b 244 619 369 732 293 663 l 63 454 b 51 425 51 446 51 444 l 433 425 z "}}}
